<svg width="976" height="976" viewBox="0 0 976 976" fill="none" xmlns="http://www.w3.org/2000/svg">
<path d="M488.609 378.337L598.272 488.304L488.609 598.272L378.946 488.304L488.609 378.337Z" fill="white"/>
<path d="M611.675 186.427L666.507 241.258L611.675 296.09L556.844 241.258L611.675 186.427Z" fill="white"/>
<path d="M611.675 680.52L666.507 735.351L611.675 790.182L556.844 735.351L611.675 680.52Z" fill="white"/>
<path d="M735.351 433.169L790.182 488.305L735.351 543.441L680.52 488.305L735.351 433.169Z" fill="white"/>
<path d="M365.543 680.52L420.375 735.351L365.543 790.182L310.712 735.351L365.543 680.52Z" fill="white"/>
<path d="M365.543 186.427L420.375 241.258L365.543 296.09L310.712 241.258L365.543 186.427Z" fill="white"/>
<path d="M241.868 433.169L296.699 488.305L241.868 543.441L187.036 488.305L241.868 433.169Z" fill="white"/>
<path d="M714.637 76.7637L742.053 104.179L714.637 131.595L687.221 104.179L714.637 76.7637Z" fill="white"/>
<path d="M947.366 460.584L974.782 488.304L947.366 516.025L919.95 488.304L947.366 460.584Z" fill="white"/>
<path d="M948.584 461.193L976 488.609L948.584 516.025L921.168 488.609L948.584 461.193Z" fill="white"/>
<path d="M879.131 241.259L906.547 268.675L879.131 296.09L851.715 268.675L879.131 241.259Z" fill="white"/>
<path d="M879.131 680.52L906.547 707.935L879.131 735.351L851.715 707.935L879.131 680.52Z" fill="white"/>
<path d="M488.609 921.169L516.025 948.585L488.609 976L461.194 948.585L488.609 921.169Z" fill="white"/>
<path d="M714.637 845.014L742.053 872.429L714.637 899.845L687.221 872.429L714.637 845.014Z" fill="white"/>
<path d="M262.582 845.014L289.997 872.429L262.582 899.845L235.166 872.429L262.582 845.014Z" fill="white"/>
<path d="M29.8527 460.584L57.2685 488.304L29.8527 516.025L2.43701 488.304L29.8527 460.584Z" fill="white"/>
<path d="M27.4157 461.193L54.8315 488.609L27.4157 516.025L0 488.609L27.4157 461.193Z" fill="white"/>
<path d="M98.0874 680.52L125.503 707.935L98.0874 735.351L70.6716 707.935L98.0874 680.52Z" fill="white"/>
<path d="M98.0874 241.259L125.503 268.675L98.0874 296.09L70.6716 268.675L98.0874 241.259Z" fill="white"/>
<path d="M488.609 0L516.025 27.4157L488.609 54.8315L461.194 27.4157L488.609 0Z" fill="white"/>
<path d="M262.582 76.7637L289.997 104.179L262.582 131.595L235.166 104.179L262.582 76.7637Z" fill="white"/>
</svg>
